<svg xmlns="http://www.w3.org/2000/svg" width="114" height="114" viewBox="0 0 114 114">
  <g id="Group_97" data-name="Group 97" transform="translate(-1164 -687)">
    <rect id="Rectangle_36" data-name="Rectangle 36" width="114" height="114" rx="57" transform="translate(1164 687)" fill="#fff"/>
    <g id="avalanche-avax-logo" transform="translate(1181.5 704)">
      <rect id="Rectangle_29" data-name="Rectangle 29" width="40.888" height="53.878" transform="translate(18.789 10.238)" fill="#fff"/>
      <path id="Path_85" data-name="Path 85" d="M78.03,39.765A38.765,38.765,0,1,1,39.265,1,38.765,38.765,0,0,1,78.03,39.765ZM28.28,55.192H20.757c-1.581,0-2.362,0-2.838-.3a1.912,1.912,0,0,1-.867-1.5c-.029-.562.362-1.248,1.143-2.619L36.771,18.031c.79-1.39,1.19-2.086,1.7-2.343a1.917,1.917,0,0,1,1.733,0c.5.257.9.952,1.7,2.343L45.713,24.7l.019.034a12.5,12.5,0,0,1,1.476,3.042,5.655,5.655,0,0,1,0,2.647A12.551,12.551,0,0,1,45.723,33.5L35.965,50.744l-.025.044a12.373,12.373,0,0,1-1.9,2.841,5.68,5.68,0,0,1-2.314,1.343A13.611,13.611,0,0,1,28.28,55.192Zm19,0h10.78c1.59,0,2.39,0,2.867-.314a1.906,1.906,0,0,0,.867-1.5c.027-.544-.355-1.2-1.1-2.494l-.078-.134-5.4-9.237-.061-.1c-.759-1.283-1.142-1.931-1.634-2.182a1.9,1.9,0,0,0-1.724,0c-.5.257-.9.933-1.686,2.3l-5.381,9.237-.018.032c-.788,1.36-1.181,2.039-1.153,2.6a1.929,1.929,0,0,0,.867,1.5C44.889,55.192,45.688,55.192,47.279,55.192Z" fill="#e84142" fill-rule="evenodd"/>
    </g>
  </g>
</svg>
