<svg xmlns="http://www.w3.org/2000/svg" width="114" height="114" viewBox="0 0 114 114">
  <g id="Group_102" data-name="Group 102" transform="translate(-990 -932)">
    <rect id="Rectangle_36" data-name="Rectangle 36" width="114" height="114" rx="57" transform="translate(990 932)" fill="#fff"/>
    <g id="Layer_2" data-name="Layer 2" transform="translate(1006.99 951.998)">
      <g id="Layer_1" data-name="Layer 1" transform="translate(0.01 0.002)">
        <path id="Path_89" data-name="Path 89" d="M74.455,112.458a5.381,5.381,0,0,0,5.058,5.68h.293a5.369,5.369,0,1,0-5.366-5.677Z" transform="translate(-52.604 -75.892)" fill="#0033ad"/>
        <path id="Path_90" data-name="Path 90" d="M1.84,119.993a1.731,1.731,0,1,0,1.2.576,1.734,1.734,0,0,0-1.2-.576Z" transform="translate(-0.01 -84.789)" fill="#0033ad"/>
        <path id="Path_91" data-name="Path 91" d="M67.235,10.525a1.74,1.74,0,1,0-1.334.1A1.737,1.737,0,0,0,67.235,10.525Z" transform="translate(-45.724 -5.118)" fill="#0033ad"/>
        <path id="Path_92" data-name="Path 92" d="M82.531,38.584a2.681,2.681,0,1,0-3.6-1.188A2.681,2.681,0,0,0,82.531,38.584Z" transform="translate(-55.573 -23.678)" fill="#0033ad"/>
        <path id="Path_93" data-name="Path 93" d="M27.012,63.313a2.209,2.209,0,1,0-.634-3.057A2.209,2.209,0,0,0,27.012,63.313Z" transform="translate(-18.387 -41.873)" fill="#0033ad"/>
        <path id="Path_94" data-name="Path 94" d="M33.717,116.66a2.681,2.681,0,1,0,2.526,2.831A2.681,2.681,0,0,0,33.717,116.66Z" transform="translate(-21.827 -82.432)" fill="#0033ad"/>
        <path id="Path_95" data-name="Path 95" d="M27.488,177.547a2.209,2.209,0,1,0,2.969.977,2.209,2.209,0,0,0-2.969-.977Z" transform="translate(-18.569 -125.291)" fill="#0033ad"/>
        <path id="Path_96" data-name="Path 96" d="M62.5,83.817a3.154,3.154,0,1,0-1.361-2A3.157,3.157,0,0,0,62.5,83.817Z" transform="translate(-43.159 -55.131)" fill="#0033ad"/>
        <path id="Path_97" data-name="Path 97" d="M175.724,38.208a2.681,2.681,0,1,0-1.162-1.7A2.684,2.684,0,0,0,175.724,38.208Z" transform="translate(-123.312 -23.514)" fill="#0033ad"/>
        <path id="Path_98" data-name="Path 98" d="M195.53,10.128a1.737,1.737,0,1,0-.5-2.4A1.737,1.737,0,0,0,195.53,10.128Z" transform="translate(-137.614 -4.903)" fill="#0033ad"/>
        <path id="Path_99" data-name="Path 99" d="M166.423,107.2a5.37,5.37,0,0,0-.616,10.723h.311a5.369,5.369,0,0,0,4-8.945A5.3,5.3,0,0,0,166.423,107.2Z" transform="translate(-113.588 -75.743)" fill="#0033ad"/>
        <path id="Path_100" data-name="Path 100" d="M96.54,77.777a5.372,5.372,0,1,0,.23-5.224A5.348,5.348,0,0,0,96.54,77.777Z" transform="translate(-67.818 -49.464)" fill="#0033ad"/>
        <path id="Path_101" data-name="Path 101" d="M233.691,62.988a2.209,2.209,0,1,0-2.969-.98A2.209,2.209,0,0,0,233.691,62.988Z" transform="translate(-162.869 -41.554)" fill="#0033ad"/>
        <path id="Path_102" data-name="Path 102" d="M190.815,78.075a3.154,3.154,0,1,0,2.41-.179A3.157,3.157,0,0,0,190.815,78.075Z" transform="translate(-133.609 -54.931)" fill="#0033ad"/>
        <path id="Path_103" data-name="Path 103" d="M130.2,4.417a2.209,2.209,0,1,0-2.08-2.329A2.209,2.209,0,0,0,130.2,4.417Z" transform="translate(-90.534 -0.002)" fill="#0033ad"/>
        <path id="Path_104" data-name="Path 104" d="M127.963,47.245a3.157,3.157,0,1,0-2.975-3.333,3.157,3.157,0,0,0,2.975,3.333Z" transform="translate(-88.318 -28.927)" fill="#0033ad"/>
        <path id="Path_105" data-name="Path 105" d="M65.812,157.886a3.157,3.157,0,1,0-4.239-1.4A3.157,3.157,0,0,0,65.812,157.886Z" transform="translate(-43.272 -107.343)" fill="#0033ad"/>
        <path id="Path_106" data-name="Path 106" d="M139.975,72.3a5.369,5.369,0,1,0,4.5-2.426A5.369,5.369,0,0,0,139.975,72.3Z" transform="translate(-98.291 -49.372)" fill="#0033ad"/>
        <path id="Path_107" data-name="Path 107" d="M149.432,147.559a5.369,5.369,0,1,0-4.794,7.786,5.427,5.427,0,0,0,2.417-.587A5.372,5.372,0,0,0,149.432,147.559Z" transform="translate(-98.413 -102.183)" fill="#0033ad"/>
        <path id="Path_108" data-name="Path 108" d="M194.113,152.142a3.157,3.157,0,1,0,.907,4.371A3.157,3.157,0,0,0,194.113,152.142Z" transform="translate(-133.713 -107.141)" fill="#0033ad"/>
        <path id="Path_109" data-name="Path 109" d="M228.023,119.077a2.681,2.681,0,1,0-2.831,2.526A2.681,2.681,0,0,0,228.023,119.077Z" transform="translate(-157.343 -82.142)" fill="#0033ad"/>
        <path id="Path_110" data-name="Path 110" d="M261.826,119.383a1.737,1.737,0,1,0,1.634,1.834,1.737,1.737,0,0,0-1.634-1.834Z" transform="translate(-183.717 -84.357)" fill="#0033ad"/>
        <path id="Path_111" data-name="Path 111" d="M234.173,177.22a2.209,2.209,0,1,0,.637,3.06A2.209,2.209,0,0,0,234.173,177.22Z" transform="translate(-163.058 -124.973)" fill="#0033ad"/>
        <path id="Path_112" data-name="Path 112" d="M67.931,232.674a1.737,1.737,0,1,0,.5,2.406A1.737,1.737,0,0,0,67.931,232.674Z" transform="translate(-46.104 -164.212)" fill="#0033ad"/>
        <path id="Path_113" data-name="Path 113" d="M196.189,232.29a1.734,1.734,0,1,0,1.326-.1A1.737,1.737,0,0,0,196.189,232.29Z" transform="translate(-137.959 -164.01)" fill="#0033ad"/>
        <path id="Path_114" data-name="Path 114" d="M105.982,152.981a5.369,5.369,0,1,0-4.495,2.426A5.369,5.369,0,0,0,105.982,152.981Z" transform="translate(-67.925 -102.227)" fill="#0033ad"/>
        <path id="Path_115" data-name="Path 115" d="M83.165,200.035a2.681,2.681,0,1,0,.775,3.714,2.681,2.681,0,0,0-.775-3.714Z" transform="translate(-55.837 -141.041)" fill="#0033ad"/>
        <path id="Path_116" data-name="Path 116" d="M130.207,236.111a2.209,2.209,0,1,0,2.08,2.332A2.209,2.209,0,0,0,130.207,236.111Z" transform="translate(-90.36 -166.84)" fill="#0033ad"/>
        <path id="Path_117" data-name="Path 117" d="M127.845,188.726a3.157,3.157,0,1,0,2.96,3.33A3.157,3.157,0,0,0,127.845,188.726Z" transform="translate(-87.975 -133.355)" fill="#0033ad"/>
        <path id="Path_118" data-name="Path 118" d="M176.379,199.655a2.679,2.679,0,1,0,2.046-.161A2.684,2.684,0,0,0,176.379,199.655Z" transform="translate(-123.597 -140.875)" fill="#0033ad"/>
      </g>
    </g>
  </g>
</svg>
