<svg xmlns="http://www.w3.org/2000/svg" width="77.468" height="83.732" viewBox="0 0 77.468 83.732">
  <g id="noun-certificate-4975625" transform="translate(-103.438 -46.666)">
    <path id="Path_148" data-name="Path 148" d="M205.335,46.666H138.354a4.2,4.2,0,0,0-4.186,4.186v62.795a4.2,4.2,0,0,0,4.186,4.186h38.619l-.921,10.278a2.12,2.12,0,0,0,1.005,1.988,2.07,2.07,0,0,0,2.24-.063l5.128-3.412,5.128,3.412a2.124,2.124,0,0,0,1.151.356,2.153,2.153,0,0,0,1.067-.293,2.082,2.082,0,0,0,1.005-1.988l-.921-10.278h5.128a4.2,4.2,0,0,0,4.186-4.186V67.6h8.373a2.1,2.1,0,0,0,2.093-2.093V52.946a6.3,6.3,0,0,0-6.28-6.279Zm-17.583,59.718a6.334,6.334,0,0,1-6.7,0,6.187,6.187,0,0,1-2.93-5.3,6.279,6.279,0,1,1,12.559,0,6.187,6.187,0,0,1-2.93,5.3Zm-2.177,15.971a2.126,2.126,0,0,0-2.323,0l-2.637,1.758,1.173-12.936a9.945,9.945,0,0,0,5.274,0l1.173,12.936-2.637-1.758Zm11.408-8.728h-5.505l-.4-4.479a10.466,10.466,0,1,0-13.312,0l-.4,4.479H138.354V50.853H197.34a6.28,6.28,0,0,0-.377,2.093v60.7Zm10.466-50.236h-6.279V52.946a2.1,2.1,0,0,1,2.093-2.093h2.093a2.1,2.1,0,0,1,2.093,2.093V63.391Z" transform="translate(-30.73)" fill="#3828be"/>
    <path id="Path_149" data-name="Path 149" d="M236.458,116.667H194.6a2.093,2.093,0,1,0,0,4.187h41.863a2.093,2.093,0,0,0,0-4.187Z" transform="translate(-78.598 -57.441)" fill="#3828be"/>
    <path id="Path_150" data-name="Path 150" d="M236.458,198.33H194.6a2.093,2.093,0,1,0,0,4.187h41.863a2.093,2.093,0,0,0,0-4.187Z" transform="translate(-78.598 -124.453)" fill="#3828be"/>
    <path id="Path_151" data-name="Path 151" d="M217.62,280H194.6a2.093,2.093,0,0,0,0,4.187H217.62a2.093,2.093,0,0,0,0-4.187Z" transform="translate(-78.598 -191.471)" fill="#3828be"/>
  </g>
</svg>
