<svg xmlns="http://www.w3.org/2000/svg" width="178.033" height="29.06" viewBox="0 0 178.033 29.06">
  <g id="Learn2Earn" transform="translate(-347.2 -121.396)">
    <path id="Path_170" data-name="Path 170" d="M1.178-13.338V0h7.5V-2.508H4.427v-10.83Zm17.233,0h-8.17V0h8.17V-2.6H13.49V-5.529h4.351V-8.037H13.49v-2.7h4.921ZM29.621,0H33.06L28.234-13.338H24.472L19.646,0h3.4l.8-2.356h4.978ZM27.987-4.864H24.7l1.634-4.883ZM41.572-9.006c0,1.045-.57,1.672-1.786,1.672H37.772V-10.64h2.014C41-10.64,41.572-9.994,41.572-9.006Zm-7.049-4.332V0h3.249V-5.035h.779L41.325,0h3.667L41.914-5.282a3.882,3.882,0,0,0,2.964-3.857c0-2.318-1.634-4.2-4.9-4.2Zm21.071,0v8.265L50.16-13.338H46.911V0H50.16V-8.227L55.594,0h3.249V-13.338Zm8.911,2.6h3.534V0h3.249V-10.735h3.534v-2.6H64.505Zm25.08,4.028a6.652,6.652,0,0,0-6.821-6.821A6.694,6.694,0,0,0,75.9-6.707,6.71,6.71,0,0,0,82.764.133,6.679,6.679,0,0,0,89.585-6.707Zm-10.355,0c0-2.375,1.368-3.876,3.534-3.876,2.128,0,3.515,1.5,3.515,3.876,0,2.337-1.387,3.876-3.515,3.876C80.6-2.831,79.23-4.37,79.23-6.707Zm24.358-6.631h-8.17V0h8.17V-2.6H98.667V-5.529h4.351V-8.037H98.667v-2.7h4.921ZM114.8,0h3.439l-4.826-13.338h-3.762L104.823,0h3.4l.8-2.356H114Zm-1.634-4.864h-3.287l1.634-4.883Zm13.585-4.142c0,1.045-.57,1.672-1.786,1.672h-2.014V-10.64h2.014C126.179-10.64,126.749-9.994,126.749-9.006ZM119.7-13.338V0h3.249V-5.035h.779L126.5,0h3.667l-3.078-5.282a3.882,3.882,0,0,0,2.964-3.857c0-2.318-1.634-4.2-4.9-4.2Zm21.071,0v8.265l-5.434-8.265h-3.249V0h3.249V-8.227L140.771,0h3.249V-13.338Z" transform="translate(381.213 139.805)" fill="#fff"/>
    <path id="Path_135" data-name="Path 135" d="M348.366,260.152a1.027,1.027,0,1,1-1.026,1.027,1.025,1.025,0,0,1,1.026-1.027Zm14.218-1.612a.843.843,0,1,1-.843.843.844.844,0,0,1,.843-.843Zm-8.142,3.848-.568,1.69a1.281,1.281,0,1,1-.8-.28,1.526,1.526,0,0,1,.284.031l.52-1.546a1.28,1.28,0,1,1,1.651-.6l2.311,1.59a1.261,1.261,0,0,1,.83-.306c.057,0,.109,0,.166.009l.467-1.389a1.278,1.278,0,1,1,.7.21c-.057,0-.114,0-.166-.009l-.467,1.389a1.279,1.279,0,1,1-1.979,1.07,1.318,1.318,0,0,1,.1-.511l-2.337-1.607a1.236,1.236,0,0,1-.716.262Zm6.95-.135a.69.69,0,1,0,.69.69.689.689,0,0,0-.69-.69Zm-10.536-2.263a.629.629,0,1,1-.629.629.629.629,0,0,1,.629-.629Zm8.326-3.49a.629.629,0,1,1-.629.629.629.629,0,0,1,.629-.629Zm-.21,9.544a.673.673,0,1,0,.673.673.673.673,0,0,0-.673-.673Zm5.7-2.276a.843.843,0,1,1-.843.843.844.844,0,0,1,.843-.843Zm-4.831,4.643a1,1,0,1,1-1,1,1,1,0,0,1,1-1Zm4.22-7.579a.843.843,0,1,1-.843.843.844.844,0,0,1,.843-.843Zm-6.552-2.311a.843.843,0,1,0,.843.843.844.844,0,0,0-.843-.843Zm4.761,7.085a1.28,1.28,0,1,0,1.28,1.28,1.279,1.279,0,0,0-1.28-1.28ZM350.7,262.856a.629.629,0,1,1-.629.629.629.629,0,0,1,.629-.629Zm1.018-5.5a.629.629,0,1,1-.629.629.629.629,0,0,1,.629-.629Zm3.534-.786a1,1,0,1,1-1,1,1,1,0,0,1,1-1Zm.695,8.439a.843.843,0,1,0,.843.843.844.844,0,0,0-.843-.843Zm-8.116-1.686a.633.633,0,1,1-.633.633A.634.634,0,0,1,347.833,263.323Z" transform="translate(0 -130.724)" fill="#fff" fill-rule="evenodd"/>
    <path id="Path_136" data-name="Path 136" d="M461.654,164.772c-1.913-8.588-13.786-10.816-21.054-6.146,10.484-2.852,21.963,4.565,15.415,12.576-1.568,1.918-4.372,3.875-6.836,10.741-.384,1.075-1.088,2.42-1.358,3.35a14.512,14.512,0,0,1,3.355-2.6c5.063-2.621,7.788,1.245,9.841-.4.708-.568.157-2.062.253-3.093,1.11-.577,1.1-.284.764-1.415l.511-.463c.328-.3.376-.205.245-.6l-.3-.891c.45-.406.9-.808,1.354-1.214.747-.668.476-.786-.118-1.695A9.633,9.633,0,0,1,461.965,169,36.049,36.049,0,0,0,461.654,164.772Z" transform="translate(-89.32 -34.838)" fill="#fff" fill-rule="evenodd"/>
  </g>
</svg>
