<svg xmlns="http://www.w3.org/2000/svg" width="114" height="114" viewBox="0 0 114 114">
  <g id="Group_98" data-name="Group 98" transform="translate(-1164 -814)">
    <rect id="Rectangle_36" data-name="Rectangle 36" width="114" height="114" rx="57" transform="translate(1164 814)" fill="#fff"/>
    <g id="Polkadot_Token_PolkadotToken_Pink" transform="translate(1258.87 836)">
      <ellipse id="Ellipse_5" data-name="Ellipse 5" cx="12.657" cy="7.361" rx="12.657" ry="7.361" transform="translate(-50.552 0)" fill="#e6007a"/>
      <ellipse id="Ellipse_6" data-name="Ellipse 6" cx="12.657" cy="7.361" rx="12.657" ry="7.361" transform="translate(-50.552 55.944)" fill="#e6007a"/>
      <ellipse id="Ellipse_7" data-name="Ellipse 7" cx="12.657" cy="7.366" rx="12.657" ry="7.366" transform="matrix(0.5, -0.866, 0.866, 0.5, -74.87, 28.506)" fill="#e6007a"/>
      <ellipse id="Ellipse_8" data-name="Ellipse 8" cx="12.657" cy="7.361" rx="12.657" ry="7.361" transform="matrix(0.5, -0.866, 0.866, 0.5, -26.331, 56.72)" fill="#e6007a"/>
      <ellipse id="Ellipse_9" data-name="Ellipse 9" cx="7.366" cy="12.657" rx="7.366" ry="12.657" transform="matrix(0.866, -0.5, 0.5, 0.866, -74.868, 42.16)" fill="#e6007a"/>
      <ellipse id="Ellipse_10" data-name="Ellipse 10" cx="7.361" cy="12.657" rx="7.361" ry="12.657" transform="matrix(0.866, -0.5, 0.5, 0.866, -26.328, 13.95)" fill="#e6007a"/>
    </g>
  </g>
</svg>
