<svg xmlns="http://www.w3.org/2000/svg" width="77" height="74" viewBox="0 0 77 74">
  <g id="Group_119" data-name="Group 119" transform="translate(9542 10274)">
    <rect id="Rectangle_90" data-name="Rectangle 90" width="77" height="74" rx="8" transform="translate(-9542 -10274)" fill="#512c99"/>
    <path id="noun-video-tutorial-1630068" d="M72.589,13.824l7.589,4.947a1.13,1.13,0,0,1,0,1.855l-7.645,4.947a1.081,1.081,0,0,1-1.686-.9V14.667a1.078,1.078,0,0,1,1.743-.843ZM52.072,0H96.086a5.254,5.254,0,0,1,5.228,5.228V38.5a5.254,5.254,0,0,1-5.228,5.228H80.908a9.558,9.558,0,0,0,3.6,4.553,1.1,1.1,0,0,1-.562,2.023H64.213a1.092,1.092,0,0,1-.618-1.967c1.462-1.124,3.148-2.7,3.654-4.61H52.071A5.254,5.254,0,0,1,46.843,38.5V5.224A5.254,5.254,0,0,1,52.071,0ZM78.66,43.729H69.5a8.924,8.924,0,0,1-2.417,4.385h13.94a9.3,9.3,0,0,1-2.361-4.385ZM96.086,2.188H52.072a3.023,3.023,0,0,0-3.036,3.036V37.208H99.121V5.224a3.023,3.023,0,0,0-3.036-3.036ZM49.148,39.345a3.069,3.069,0,0,0,2.923,2.192H96.085a3.069,3.069,0,0,0,2.923-2.192H49.147Zm25.127-31.7A12.029,12.029,0,1,1,62.246,19.671,12.007,12.007,0,0,1,74.275,7.642Zm0,2.192a9.837,9.837,0,1,0,9.837,9.837A9.848,9.848,0,0,0,74.275,9.834Zm3.317,9.837-4.553-2.979v5.958l4.553-2.979Z" transform="translate(-9577.926 -10261.156)" fill="#fff" stroke="#512c99" stroke-width="0.5"/>
  </g>
</svg>
