<svg xmlns="http://www.w3.org/2000/svg" width="77" height="74" viewBox="0 0 77 74">
  <g id="Group_118" data-name="Group 118" transform="translate(9686 10274)">
    <rect id="Rectangle_89" data-name="Rectangle 89" width="77" height="74" rx="8" transform="translate(-9686 -10274)" fill="#512c99"/>
    <path id="Path_262" data-name="Path 262" d="M127.507,39a18.471,18.471,0,0,1,16.945,25.8q7.463,7.463,14.927,14.921c6.084,6.084-3.47,15.747-9.607,9.613-.017,0-13.653-13.652-14.927-14.927A18.465,18.465,0,1,1,127.506,39ZM116.624,58.139a1.818,1.818,0,0,1,2.571-2.571l5.7,5.695,9.973-11.054a1.816,1.816,0,0,1,2.7,2.429l-11.2,12.409a1.819,1.819,0,0,1-2.7.139Zm26.211,9.617a18.534,18.534,0,0,1-5.032,5.031l14.252,14.258c3.1,3.085,8.139-1.932,5.035-5.036Zm-.1-10.3a15.223,15.223,0,1,0-15.223,15.224A15.223,15.223,0,0,0,142.73,57.459Z" transform="translate(-9782.685 -10302.146)" fill="#fff" stroke="#512c99" stroke-width="1"/>
  </g>
</svg>
