<svg xmlns="http://www.w3.org/2000/svg" width="77" height="74" viewBox="0 0 77 74">
  <g id="Group_116" data-name="Group 116" transform="translate(9586 10374)">
    <rect id="Rectangle_88" data-name="Rectangle 88" width="77" height="74" rx="8" transform="translate(-9586 -10374)" fill="#512c99"/>
    <path id="Path_185" data-name="Path 185" d="M205.25,131.15H179.81a1.119,1.119,0,0,0,0,2.238h25.439a1.119,1.119,0,0,0,0-2.238Z" transform="translate(-9738.023 -10488.627)" fill="#fff" stroke="#512c99" stroke-width="0.5"/>
    <path id="Path_186" data-name="Path 186" d="M165.792,95.332V94.188a6.728,6.728,0,0,0-4.415-6.306V83.15a6.391,6.391,0,0,0-6.384-6.384h-26.15a6.354,6.354,0,0,0-6.38,6.178v0c0,.012,0,.022,0,.034v18.738a1.119,1.119,0,1,0,2.238,0V87.975a6.688,6.688,0,0,0,4.484,1.728h29.886a4.5,4.5,0,0,1,.719.063,1.109,1.109,0,0,0,.47.106h.013a4.489,4.489,0,0,1,3.282,4.316v1.088H155.3a3.051,3.051,0,0,0-3.048,3.047v5.1a3.051,3.051,0,0,0,3.048,3.048h8.285a1.1,1.1,0,0,0-.031.253v3.43a4.489,4.489,0,0,1-4.484,4.484H138.018a1.119,1.119,0,0,0,0,2.238h21.05a6.731,6.731,0,0,0,6.723-6.723v-3.43a1.1,1.1,0,0,0-.046-.3,3.05,3.05,0,0,0,2.518-3v-5.1a3.052,3.052,0,0,0-2.472-2.991Zm-36.609-7.867a4.488,4.488,0,0,1-4.482-4.447v0a4.125,4.125,0,0,1,4.143-4.011h26.15a4.149,4.149,0,0,1,4.145,4.145v4.319c-.023,0-.046,0-.07,0H129.183Zm36.843,15.955a.81.81,0,0,1-.809.809H155.3a.81.81,0,0,1-.809-.809v-5.1a.81.81,0,0,1,.809-.809h9.917a.81.81,0,0,1,.809.809Z" transform="translate(-9687.411 -10439.679)" fill="#fff" stroke="#512c99" stroke-width="0.5"/>
    <path id="Path_187" data-name="Path 187" d="M468.141,303.088a1.653,1.653,0,1,1-1.653-1.653,1.653,1.653,0,0,1,1.653,1.653" transform="translate(-9995.571 -10641.896)" fill="#fff"/>
    <path id="Path_222" data-name="Path 222" d="M157.558,251.329a.83.83,0,1,0-1.308,1.021l2.068,2.657H144.033a3.329,3.329,0,0,1-3.317-3.318V245.9H139.05v5.788a5,5,0,0,0,4.983,4.983h14.293l-2.09,2.685a.83.83,0,0,0,1.307,1.022l3.123-4.011a.83.83,0,0,0,.009-1.033Z" transform="translate(-9714.902 -10571.784)" fill="#fff" fill-rule="evenodd"/>
    <path id="Path_223" data-name="Path 223" d="M159.392,33.269a4.968,4.968,0,0,0-3.52-1.463H141.579l2.09-2.685a.83.83,0,0,0-1.308-1.022l-3.123,4.011a.83.83,0,0,0-.009,1.033l3.119,4.006a.83.83,0,1,0,1.308-1.021l-2.068-2.656h14.285a3.329,3.329,0,0,1,3.317,3.318v5.788h1.666V36.79a4.973,4.973,0,0,0-1.464-3.52Z" transform="translate(-9714.904 -10364.935)" fill="#fff" fill-rule="evenodd"/>
  </g>
</svg>
