<svg xmlns="http://www.w3.org/2000/svg" width="77" height="74" viewBox="0 0 77 74">
  <g id="Group_117" data-name="Group 117" transform="translate(9771 10374)">
    <rect id="Rectangle_87" data-name="Rectangle 87" width="77" height="74" rx="8" transform="translate(-9771 -10374)" fill="#512c99"/>
    <path id="Path_176" data-name="Path 176" d="M131.206,81.282a14.44,14.44,0,0,0,7.021-1.8,14.533,14.533,0,1,0,23.479-12.742,14.52,14.52,0,1,0-23.472-12.721,14.538,14.538,0,1,0-7.028,27.266Zm34.762-3.16A13.273,13.273,0,1,1,152.7,64.849,13.287,13.287,0,0,1,165.968,78.122ZM152.7,42.1a13.254,13.254,0,0,1,7.952,23.871,15.484,15.484,0,0,0-7.217-2.32c-2.13-.32-5.862.7-7.774,1.764a14.508,14.508,0,0,0-6.211-10.622A13.339,13.339,0,0,1,152.7,42.1Zm-21.49,11.376a13.137,13.137,0,0,1,7.239,2.147,13.269,13.269,0,0,1,6.007,10.541,14.526,14.526,0,0,0-6.289,11.867,13.148,13.148,0,0,1-6.957,1.99,13.273,13.273,0,1,1,0-26.545Z" transform="translate(-9877.45 -10403.745)" fill="#fff" stroke="#fff" stroke-width="1"/>
  </g>
</svg>
