<svg xmlns="http://www.w3.org/2000/svg" width="24" height="24" viewBox="0 0 24 24">
  <g id="Telegram" transform="translate(-307 -2376)">
    <rect id="Rectangle_93" data-name="Rectangle 93" width="24" height="24" rx="4" transform="translate(307 2376)" fill="#6841b4"/>
    <path id="_8547122_telegram_plane_icon" data-name="8547122_telegram_plane_icon" d="M12.834,65.381l-1.94,9.148c-.146.646-.528.806-1.07.5L6.868,72.853,5.442,74.225a.742.742,0,0,1-.594.29L5.06,71.5l5.478-4.95c.238-.212-.052-.33-.37-.118L3.4,70.7.481,69.788c-.634-.2-.646-.634.132-.938l11.4-4.393C12.544,64.259,13.006,64.574,12.834,65.381Z" transform="translate(312.984 2318.601)" fill="#fff"/>
  </g>
</svg>
