<svg xmlns="http://www.w3.org/2000/svg" width="114" height="114" viewBox="0 0 114 114">
  <g id="Group_96" data-name="Group 96" transform="translate(-990 -687)">
    <rect id="Rectangle_36" data-name="Rectangle 36" width="114" height="114" rx="57" transform="translate(990 687)" fill="#fff"/>
    <path id="TezosLogo_Icon_Blue" d="M68.7,60.795C67.957,47.578,51.33,41.57,49.739,40.953c-.065-.032-.065-.1-.032-.162L66.853,23.58V21.729a.569.569,0,0,0-.552-.552H34.7V10.817h0V7.7L23.045,10.136v1.754h.649a2.8,2.8,0,0,1,2.858,2.858v6.4H17.525a.349.349,0,0,0-.325.325v4.059h9.385v22.05c0,6.917,4.449,11.723,12.243,11.074a9.692,9.692,0,0,0,4.481-1.624,2.044,2.044,0,0,0,.942-1.721V53.131a8.536,8.536,0,0,1-4.676,1.591c-4.936,0-4.839-6.267-4.839-6.267V25.528H57.468L41.1,42.025c-.032,2.176-.065,3.864-.065,3.9a.086.086,0,0,0,.1.1c15,2.533,19.062,12.243,19.062,15.068,0,0,1.624,13.736-12.113,14.678,0,0-9,.39-10.586-3.215a.237.237,0,0,1,.13-.325,4.065,4.065,0,0,0,2.5-3.8c0-2.663-1.624-4.839-5.033-4.839a4.958,4.958,0,0,0-5.033,4.839s-1.3,11.561,17.991,11.236C70.068,79.273,68.7,60.795,68.7,60.795Z" transform="translate(1003.8 700.3)" fill="#0d61ff"/>
  </g>
</svg>
