<svg xmlns="http://www.w3.org/2000/svg" width="61.895" height="49" viewBox="0 0 61.895 49">
  <g id="noun-wallet-4034816" transform="translate(-122.5 -113.75)">
    <path id="Path_153" data-name="Path 153" d="M156.026,134.381v7.737a7.736,7.736,0,0,0,7.737,7.737h18.053a7.15,7.15,0,0,0,2.579-.464v5.622a7.736,7.736,0,0,1-7.737,7.737H130.237a7.736,7.736,0,0,1-7.737-7.737V121.486a7.736,7.736,0,0,1,7.737-7.737h46.421a7.736,7.736,0,0,1,7.737,7.737v5.622a7.15,7.15,0,0,0-2.579-.464H163.763a7.736,7.736,0,0,0-7.737,7.737Z" fill="#3828be"/>
    <path id="Path_154" data-name="Path 154" d="M405.632,236.25H387.579A2.579,2.579,0,0,0,385,238.829v7.737a2.579,2.579,0,0,0,2.579,2.579h18.053a2.579,2.579,0,0,0,2.579-2.579v-7.737a2.579,2.579,0,0,0-2.579-2.579Zm-11.605,10.316a3.868,3.868,0,1,1,2.735-1.133A3.869,3.869,0,0,1,394.026,246.566Z" transform="translate(-223.816 -104.448)" fill="#3828be"/>
  </g>
</svg>
