<svg xmlns="http://www.w3.org/2000/svg" width="24" height="24" viewBox="0 0 24 24">
  <g id="Youtube" transform="translate(-273 -2376)">
    <rect id="Rectangle_34" data-name="Rectangle 34" width="24" height="24" rx="4" transform="translate(273 2376)" fill="#6841b4"/>
    <g id="_211929_social_youtube_icon" data-name="211929_social_youtube_icon" transform="translate(279.006 2319)">
      <path id="Path_272" data-name="Path 272" d="M12.1,66.018a1.85,1.85,0,0,0-1.761-1.932C9.017,64.024,7.673,64,6.3,64H5.871c-1.371,0-2.717.024-4.036.086A1.854,1.854,0,0,0,.077,66.023c-.059.847-.086,1.694-.083,2.541s.024,1.694.081,2.544a1.856,1.856,0,0,0,1.758,1.939c1.385.064,2.805.093,4.25.09s2.863-.024,4.25-.09a1.856,1.856,0,0,0,1.761-1.939c.057-.85.083-1.7.081-2.546S12.153,66.867,12.1,66.018ZM4.92,70.9V66.222l3.45,2.337Z" fill="#fff"/>
    </g>
  </g>
</svg>
